<svg width="2490" height="505" viewBox="0 0 2490 505" fill="none" xmlns="http://www.w3.org/2000/svg">
<path d="M333 405C333 460.228 288.228 505 233 505H100C44.7715 505 0 460.228 0 405V238.08L333 325.927V405Z" fill="#FF914D"/>
<path d="M0 67.5747C0 30.2542 30.4264 0 67.9592 0H265.041C302.574 0 333 30.2542 333 67.5747V266.92L0 179.073V67.5747Z" fill="#FF914D"/>
<g filter="url(#filter0_d_13_7)">
<path d="M396.992 104.625H431.758L506.172 336.461L580.391 104.625H615.156L519.648 389H492.305L396.992 104.625ZM385.664 104.625H416.133L421.406 278.062V389H385.664V104.625ZM595.82 104.625H626.289V389H590.547V278.062L595.82 104.625ZM732.344 367.125L779.414 177.672H816.133L746.406 421.617C744.714 426.826 742.435 432.424 739.57 438.414C736.836 444.534 733.32 450.328 729.023 455.797C724.727 461.266 719.583 465.693 713.594 469.078C707.604 472.594 700.573 474.352 692.5 474.352C690.026 474.352 686.836 473.961 682.93 473.18C679.154 472.398 676.419 471.747 674.727 471.227V441.93C675.508 442.06 676.745 442.19 678.438 442.32C680.13 442.581 681.367 442.711 682.148 442.711C688.919 442.711 694.648 441.604 699.336 439.391C704.154 437.307 708.255 433.727 711.641 428.648C715.026 423.701 717.891 416.865 720.234 408.141L732.344 367.125ZM701.875 177.672L743.867 341.734L752.852 379.82L728.242 393.102L664.18 177.672H701.875ZM946.211 104.625V389H910.664V104.625H946.211ZM1021.02 104.625V135.484H836.055V104.625H1021.02ZM1095.43 177.672V389H1061.05V177.672H1095.43ZM1059.1 121.617C1059.1 115.758 1060.73 110.81 1063.98 106.773C1067.24 102.737 1072.12 100.719 1078.63 100.719C1085.14 100.719 1090.03 102.737 1093.28 106.773C1096.67 110.81 1098.36 115.758 1098.36 121.617C1098.36 127.216 1096.67 132.034 1093.28 136.07C1090.03 139.977 1085.14 141.93 1078.63 141.93C1072.12 141.93 1067.24 139.977 1063.98 136.07C1060.73 132.034 1059.1 127.216 1059.1 121.617ZM1184.69 219.664V389H1150.31V177.672H1182.73L1184.69 219.664ZM1177.66 275.328L1161.64 274.742C1161.51 260.289 1162.94 246.943 1165.94 234.703C1168.93 222.333 1173.42 211.591 1179.41 202.477C1185.53 193.362 1193.15 186.331 1202.27 181.383C1211.51 176.305 1222.25 173.766 1234.49 173.766C1242.57 173.766 1250.05 175.198 1256.95 178.062C1263.98 180.797 1270.1 185.159 1275.31 191.148C1280.52 197.138 1284.56 204.82 1287.42 214.195C1290.42 223.57 1291.91 234.898 1291.91 248.18V389H1257.34V249.938C1257.34 238.87 1255.85 230.016 1252.85 223.375C1249.99 216.734 1245.89 211.917 1240.55 208.922C1235.21 205.797 1228.83 204.234 1221.41 204.234C1212.94 204.234 1205.85 206.122 1200.12 209.898C1194.52 213.674 1190.03 218.883 1186.64 225.523C1183.39 232.164 1181.04 239.781 1179.61 248.375C1178.31 256.839 1177.66 265.823 1177.66 275.328ZM1291.52 255.406L1268.48 262.828C1268.35 251.24 1269.78 240.107 1272.77 229.43C1275.77 218.753 1280.2 209.247 1286.05 200.914C1292.04 192.581 1299.47 186.005 1308.32 181.188C1317.17 176.24 1327.46 173.766 1339.18 173.766C1348.82 173.766 1357.34 175.263 1364.77 178.258C1372.19 181.253 1378.44 185.875 1383.52 192.125C1388.72 198.245 1392.63 206.122 1395.23 215.758C1397.84 225.393 1399.14 236.852 1399.14 250.133V389H1364.57V249.742C1364.57 237.893 1363.07 228.714 1360.08 222.203C1357.21 215.562 1353.11 210.94 1347.77 208.336C1342.43 205.602 1336.05 204.234 1328.63 204.234C1322.64 204.234 1317.3 205.602 1312.62 208.336C1308.06 211.07 1304.22 214.846 1301.09 219.664C1297.97 224.352 1295.56 229.755 1293.87 235.875C1292.3 241.995 1291.52 248.505 1291.52 255.406ZM1526.88 392.906C1514.24 392.906 1502.85 391.018 1492.7 387.242C1482.54 383.466 1473.88 377.737 1466.72 370.055C1459.56 362.242 1454.09 352.411 1450.31 340.562C1446.54 328.714 1444.65 314.716 1444.65 298.57V274.742C1444.65 256.122 1446.8 240.367 1451.09 227.477C1455.52 214.586 1461.45 204.234 1468.87 196.422C1476.29 188.479 1484.69 182.75 1494.06 179.234C1503.44 175.589 1513.07 173.766 1522.97 173.766C1536.25 173.766 1547.58 175.914 1556.95 180.211C1566.33 184.508 1573.95 190.888 1579.8 199.352C1585.66 207.815 1589.96 218.232 1592.7 230.602C1595.56 242.971 1596.99 257.229 1596.99 273.375V293.492H1464.96V264H1562.42V259.117C1561.9 248.18 1560.4 238.544 1557.93 230.211C1555.59 221.878 1551.68 215.367 1546.21 210.68C1540.74 205.862 1532.99 203.453 1522.97 203.453C1516.59 203.453 1510.66 204.56 1505.2 206.773C1499.86 208.857 1495.23 212.568 1491.33 217.906C1487.55 223.115 1484.56 230.341 1482.34 239.586C1480.26 248.831 1479.22 260.549 1479.22 274.742V298.57C1479.22 309.898 1480.26 319.664 1482.34 327.867C1484.56 335.94 1487.75 342.646 1491.91 347.984C1496.21 353.193 1501.42 357.099 1507.54 359.703C1513.79 362.177 1520.89 363.414 1528.83 363.414C1540.42 363.414 1549.99 361.201 1557.54 356.773C1565.09 352.216 1571.67 346.422 1577.27 339.391L1595.43 361.07C1591.65 366.409 1586.71 371.552 1580.59 376.5C1574.6 381.318 1567.17 385.289 1558.32 388.414C1549.6 391.409 1539.11 392.906 1526.88 392.906ZM1729.61 255.992H1671.8L1671.41 225.719H1725.12C1733.19 225.719 1740.35 223.896 1746.6 220.25C1752.85 216.604 1757.73 211.396 1761.25 204.625C1764.9 197.724 1766.72 189.521 1766.72 180.016C1766.72 169.599 1765.16 161.135 1762.03 154.625C1759.04 147.984 1754.41 143.167 1748.16 140.172C1742.04 137.047 1734.23 135.484 1724.73 135.484H1679.41V389H1643.48V104.625H1724.73C1736.97 104.625 1747.9 106.122 1757.54 109.117C1767.17 111.982 1775.31 116.539 1781.95 122.789C1788.72 128.909 1793.87 136.721 1797.38 146.227C1800.9 155.732 1802.66 167.125 1802.66 180.406C1802.66 192.125 1799.99 202.737 1794.65 212.242C1789.44 221.617 1782.15 229.299 1772.77 235.289C1763.4 241.279 1752.59 245.12 1740.35 246.812L1729.61 255.992ZM1728.24 389H1656.95L1677.85 358.336H1728.24C1737.62 358.336 1745.56 356.253 1752.07 352.086C1758.58 347.919 1763.53 342.06 1766.91 334.508C1770.43 326.826 1772.19 317.776 1772.19 307.359C1772.19 296.812 1770.76 287.698 1767.89 280.016C1765.03 272.333 1760.47 266.409 1754.22 262.242C1747.97 258.076 1739.77 255.992 1729.61 255.992H1683.32L1683.71 225.719H1746.21L1754.22 236.656C1765.94 237.828 1775.77 241.734 1783.71 248.375C1791.78 254.885 1797.84 263.219 1801.88 273.375C1806.04 283.531 1808.12 294.729 1808.12 306.969C1808.12 324.677 1804.8 339.651 1798.16 351.891C1791.65 364 1782.41 373.245 1770.43 379.625C1758.45 385.875 1744.39 389 1728.24 389ZM1894.26 89V389H1859.88V89H1894.26ZM1941.72 293.492V273.375C1941.72 256.969 1943.8 242.581 1947.97 230.211C1952.14 217.711 1957.93 207.294 1965.35 198.961C1972.77 190.628 1981.43 184.378 1991.33 180.211C2001.22 175.914 2011.84 173.766 2023.16 173.766C2034.75 173.766 2045.49 175.914 2055.39 180.211C2065.29 184.378 2073.95 190.628 2081.37 198.961C2088.92 207.294 2094.78 217.711 2098.95 230.211C2103.11 242.581 2105.2 256.969 2105.2 273.375V293.492C2105.2 309.898 2103.11 324.352 2098.95 336.852C2094.78 349.221 2088.98 359.573 2081.56 367.906C2074.14 376.24 2065.48 382.49 2055.59 386.656C2045.69 390.823 2035.01 392.906 2023.55 392.906C2012.1 392.906 2001.42 390.823 1991.52 386.656C1981.63 382.49 1972.9 376.24 1965.35 367.906C1957.93 359.573 1952.14 349.221 1947.97 336.852C1943.8 324.352 1941.72 309.898 1941.72 293.492ZM1976.29 273.375V293.492C1976.29 305.081 1977.46 315.237 1979.8 323.961C1982.15 332.685 1985.47 339.977 1989.77 345.836C1994.06 351.695 1999.08 356.122 2004.8 359.117C2010.53 361.982 2016.78 363.414 2023.55 363.414C2031.37 363.414 2038.2 361.982 2044.06 359.117C2050.05 356.122 2055 351.695 2058.91 345.836C2062.81 339.977 2065.74 332.685 2067.7 323.961C2069.65 315.237 2070.62 305.081 2070.62 293.492V273.375C2070.62 261.786 2069.45 251.695 2067.11 243.102C2064.77 234.378 2061.45 227.086 2057.15 221.227C2052.85 215.237 2047.77 210.81 2041.91 207.945C2036.18 204.951 2029.93 203.453 2023.16 203.453C2016.52 203.453 2010.34 204.951 2004.61 207.945C1998.88 210.81 1993.87 215.237 1989.57 221.227C1985.4 227.086 1982.15 234.378 1979.8 243.102C1977.46 251.695 1976.29 261.786 1976.29 273.375ZM2222.97 363.414C2229.87 363.414 2236.12 362.047 2241.72 359.312C2247.45 356.448 2252.14 352.021 2255.78 346.031C2259.43 339.911 2261.51 331.969 2262.03 322.203H2294.45C2293.93 336.266 2290.35 348.635 2283.71 359.312C2277.2 369.859 2268.61 378.128 2257.93 384.117C2247.38 389.977 2235.73 392.906 2222.97 392.906C2209.3 392.906 2197.38 390.693 2187.23 386.266C2177.2 381.839 2168.87 375.458 2162.23 367.125C2155.72 358.661 2150.83 348.44 2147.58 336.461C2144.32 324.352 2142.7 310.615 2142.7 295.25V271.422C2142.7 256.057 2144.32 242.385 2147.58 230.406C2150.83 218.297 2155.72 208.076 2162.23 199.742C2168.87 191.279 2177.2 184.833 2187.23 180.406C2197.38 175.979 2209.3 173.766 2222.97 173.766C2237.29 173.766 2249.66 176.826 2260.08 182.945C2270.62 188.935 2278.83 197.659 2284.69 209.117C2290.68 220.445 2293.93 234.182 2294.45 250.328H2262.03C2261.51 239.911 2259.62 231.253 2256.37 224.352C2253.11 217.32 2248.68 212.112 2243.09 208.727C2237.49 205.211 2230.78 203.453 2222.97 203.453C2213.85 203.453 2206.3 205.081 2200.31 208.336C2194.45 211.461 2189.83 216.018 2186.45 222.008C2183.06 227.997 2180.65 235.159 2179.22 243.492C2177.92 251.826 2177.27 261.135 2177.27 271.422V295.25C2177.27 305.536 2177.92 314.911 2179.22 323.375C2180.65 331.708 2182.99 338.87 2186.25 344.859C2189.64 350.849 2194.32 355.471 2200.31 358.727C2206.3 361.852 2213.85 363.414 2222.97 363.414ZM2369.26 89V389H2334.69V89H2369.26ZM2476.48 177.672L2401.29 276.305L2354.8 329.82L2352.46 291.344L2384.49 247.203L2434.88 177.672H2476.48ZM2444.84 389L2385.47 288.219L2403.24 255.992L2485.08 389H2444.84Z" fill="black"/>
</g>
<defs>
<filter id="filter0_d_13_7" x="381.664" y="89" width="2107.41" height="393.352" filterUnits="userSpaceOnUse" color-interpolation-filters="sRGB">
<feFlood flood-opacity="0" result="BackgroundImageFix"/>
<feColorMatrix in="SourceAlpha" type="matrix" values="0 0 0 0 0 0 0 0 0 0 0 0 0 0 0 0 0 0 127 0" result="hardAlpha"/>
<feOffset dy="4"/>
<feGaussianBlur stdDeviation="2"/>
<feComposite in2="hardAlpha" operator="out"/>
<feColorMatrix type="matrix" values="0 0 0 0 0 0 0 0 0 0 0 0 0 0 0 0 0 0 0.25 0"/>
<feBlend mode="normal" in2="BackgroundImageFix" result="effect1_dropShadow_13_7"/>
<feBlend mode="normal" in="SourceGraphic" in2="effect1_dropShadow_13_7" result="shape"/>
</filter>
</defs>
</svg>
